HIERARCHY
ROOT hip
{
	OFFSET 0.000000 0.000000 0.000000 
	CHANNELS 6 Xposition Yposition Zposition Xrotation Zrotation Yrotation
	JOINT abdomen
	{
		OFFSET 0.000000 3.402643 0.000000 
		CHANNELS 3 Xrotation Zrotation Yrotation
		JOINT chest
		{
			OFFSET 0.000000 8.438565 -0.680529 
			CHANNELS 3 Xrotation Zrotation Yrotation
			JOINT neck
			{
				OFFSET 0.000000 10.207942 -0.272212 
				CHANNELS 3 Xrotation Zrotation Yrotation
				JOINT head
				{
					OFFSET 0.000000 3.130431 0.000000 
					CHANNELS 3 Xrotation Zrotation Yrotation
					End Site
					{
						OFFSET 0.000000 3.130435 0.000000 
					}
				}
			}
			JOINT lCollar
			{
				OFFSET 3.470700 6.669187 -0.816635 
				CHANNELS 3 Yrotation Zrotation Xrotation
				JOINT lShldr
				{
					OFFSET 3.198488 0.000000 0.000000 
					CHANNELS 3 Zrotation Yrotation Xrotation
					JOINT lForeArm
					{
						OFFSET 10.139888 0.000000 0.000000 
						CHANNELS 3 Yrotation Zrotation Xrotation
						JOINT lHand
						{
							OFFSET 8.370511 0.000000 0.000000 
							CHANNELS 3 Zrotation Yrotation Xrotation
							End Site
							{
								OFFSET 4.083176 0.000000 0.000000 
							}
						}
					}
				}
			}
			JOINT rCollar
			{
				OFFSET -3.470700 6.669187 -0.816635 
				CHANNELS 3 Yrotation Zrotation Xrotation
				JOINT rShldr
				{
					OFFSET -3.198488 0.000000 0.000000 
					CHANNELS 3 Zrotation Yrotation Xrotation
					JOINT rForeArm
					{
						OFFSET -10.139888 0.000000 0.000000 
						CHANNELS 3 Yrotation Zrotation Xrotation
						JOINT rHand
						{
							OFFSET -8.370511 0.000000 0.000000 
							CHANNELS 3 Zrotation Yrotation Xrotation
							End Site
							{
								OFFSET -4.083176 0.000000 0.000000 
							}
						}
					}
				}
			}
		}
	}
	JOINT lThigh
	{
		OFFSET 5.308129 -1.633274 1.361059 
		CHANNELS 3 Xrotation Zrotation Yrotation
		JOINT lShin
		{
			OFFSET -2.041588 -20.007561 0.000000 
			CHANNELS 3 Xrotation Zrotation Yrotation
			JOINT lFoot
			{
				OFFSET 0.000000 -19.190928 -1.224953 
				CHANNELS 3 Xrotation Yrotation Zrotation
				End Site
				{
					OFFSET 0.000000 -2.449906 4.627600 
				}
			}
		}
	}
	JOINT rThigh
	{
		OFFSET -5.308129 -1.633274 1.361059 
		CHANNELS 3 Xrotation Zrotation Yrotation
		JOINT rShin
		{
			OFFSET 2.041588 -20.007561 0.000000 
			CHANNELS 3 Xrotation Zrotation Yrotation
			JOINT rFoot
			{
				OFFSET 0.000000 -19.190928 -1.224953 
				CHANNELS 3 Xrotation Yrotation Zrotation
				End Site
				{
					OFFSET 0.000000 -2.449906 4.627600 
				}
			}
		}
	}
}
MOTION
Frames: 6
Frame Time: 0.033333
8.457801 52.073147 -76.005096 -3.349609 -1.240234 168.798615 18.026007 -11.007772 -5.382046 -17.988281 12.158203 5.371094 51.063168 8.107644 2.471410 -52.939453 -2.490234 17.128906 2.000000 -2.000000 0.000000 -51.630863 -23.974611 -5.517578 -135.049744 2.266691 -2.280346 1.714746 44.900017 -26.668121 -2.000000 2.000000 0.000000 80.507813 -20.566406 -60.833511 127.275955 -2.110088 -2.954621 14.533476 -26.833014 -20.189011 -3.174717 18.679943 35.602695 23.213617 -4.785166 -2.173110 -4.014359 2.040133 -8.481050 -2.193977 -1.370024 -23.239765 20.188669 4.904438 1.223974 -10.796082 -8.609107 -2.926214 
8.539431 52.065262 -75.886711 -3.525390 -1.240234 168.622833 18.200783 -10.995240 -5.387762 -17.988281 12.158203 5.195313 51.063168 8.107644 2.471410 -50.556641 -1.445313 18.271238 2.000000 -2.000000 0.000000 -53.466797 -22.763674 -4.398311 -134.185043 2.063202 -2.415157 1.026697 45.309837 -27.287426 -2.000000 2.000000 0.000000 80.068359 -20.312500 -59.710423 127.097076 -2.281470 -2.867134 15.214288 -26.883400 -19.994150 -3.360106 18.817957 35.381653 23.233232 -4.785208 -2.184449 -3.912309 2.443637 -8.216712 -2.497431 -1.167382 -23.595284 20.368536 4.813663 1.875602 -10.828766 -8.569297 -3.342062 
8.617153 52.057384 -75.756989 -3.720703 -1.240234 168.457031 18.565012 -11.165093 -5.465816 -18.183594 11.992188 5.117188 51.063168 8.107644 2.471410 -48.193359 -0.410156 19.335941 2.000000 -2.000000 0.000000 -55.029297 -21.083984 -3.671875 -133.306473 2.033388 -2.423197 0.521889 44.470085 -27.508642 -2.000000 2.000000 0.000000 79.716797 -20.234375 -58.919399 127.109093 -2.121530 -2.926309 15.741243 -27.039000 -20.045959 -3.341929 19.195314 35.579437 23.206139 -4.773988 -2.160492 -4.000628 2.377008 -8.488583 -2.617069 -0.986166 -23.591625 20.366425 4.823020 1.877105 -10.667191 -8.621254 -3.105025 
8.696501 52.057384 -75.621597 -3.876953 -1.240234 168.281265 18.765642 -11.487646 -5.580535 -18.359375 12.001953 4.904375 51.063168 8.107644 2.471410 -46.347660 0.498047 20.263674 2.000000 -2.000000 0.000000 -56.787109 -19.257813 -2.991500 -132.255936 1.830474 -2.547948 0.447550 43.610748 -27.144125 -2.000000 2.000000 0.000000 79.326172 -20.595703 -57.757343 127.097076 -2.281470 -2.867134 15.412260 -26.925850 -19.622599 -3.859973 19.320658 35.668667 23.368887 -4.755640 -2.179646 -3.947335 2.275228 -8.371697 -2.936495 -0.826098 -23.412998 20.376448 4.823098 1.877919 -10.855063 -8.568181 -3.344317 
8.777563 52.049500 -75.482155 -4.052734 -1.064453 168.095703 18.955040 -11.660870 -5.647640 -18.359375 12.001953 4.728593 51.063168 8.107644 2.471410 -45.048828 1.259766 20.713106 2.000000 -2.000000 0.000000 -58.193356 -17.382813 -3.000964 -131.547363 1.821420 -2.703875 0.022621 42.644272 -27.505686 -2.000000 2.000000 0.000000 78.925781 -20.673828 -56.923828 127.097076 -2.281470 -2.867134 14.903102 -26.819565 -19.179218 -4.026690 19.611526 35.660801 23.360373 -4.744586 -2.197011 -3.931643 2.416564 -8.704422 -3.424548 -0.650800 -23.409704 20.368534 4.813676 1.875603 -10.557032 -8.518874 -3.456346 
8.865313 52.033752 -75.339485 -4.238281 -1.054687 167.753906 19.307159 -11.897792 -5.575908 -18.544922 11.845704 4.494192 51.063168 8.107644 2.471410 -45.009769 1.601562 20.566408 2.000000 -2.000000 0.000000 -59.550781 -15.761719 -2.990933 -131.009460 2.134848 -2.360664 -0.253993 42.595768 -27.603855 -2.000000 2.000000 0.000000 78.798828 -20.937500 -56.396484 126.921577 -2.271156 -2.876314 14.723221 -26.816584 -19.168968 -4.356970 19.821217 36.117847 23.710642 -4.580032 -2.164609 -4.357589 2.225309 -8.978937 -3.687499 -0.318708 -23.223289 20.364929 4.832501 1.859176 -10.492313 -8.736018 -3.783535 
